<mxfile host="app.diagrams.net" modified="2024-02-15T08:12:56.445Z" agent="Mozilla/5.0 (X11; Linux x86_64) AppleWebKit/537.36 (KHTML, like Gecko) Chrome/121.0.0.0 Safari/537.36" etag="QEOB1M2bed5CxtbU9DWx" version="23.1.2" type="device">
  <diagram name="Pagina-1" id="dTFEXCQO0-QiRy8G9GTc">
    <mxGraphModel dx="1434" dy="820" grid="1" gridSize="10" guides="1" tooltips="1" connect="1" arrows="1" fold="1" page="1" pageScale="1" pageWidth="3300" pageHeight="2339" math="0" shadow="0">
      <root>
        <mxCell id="0" />
        <mxCell id="1" parent="0" />
        <mxCell id="M77VAWwHIAC1k1xbrqEO-1" value="" style="ellipse;whiteSpace=wrap;html=1;fillColor=#dae8fc;strokeColor=#6c8ebf;" vertex="1" parent="1">
          <mxGeometry x="280" y="100" width="890" height="500" as="geometry" />
        </mxCell>
        <mxCell id="M77VAWwHIAC1k1xbrqEO-2" value="" style="ellipse;whiteSpace=wrap;html=1;fillColor=#d5e8d4;strokeColor=#82b366;" vertex="1" parent="1">
          <mxGeometry x="490" y="170" width="630" height="390" as="geometry" />
        </mxCell>
        <mxCell id="M77VAWwHIAC1k1xbrqEO-3" value="" style="whiteSpace=wrap;html=1;shape=ellipse;perimeter=ellipsePerimeter;fillColor=#fff2cc;strokeColor=#d6b656;" vertex="1" parent="1">
          <mxGeometry x="710" y="320" width="370" height="210" as="geometry" />
        </mxCell>
        <mxCell id="M77VAWwHIAC1k1xbrqEO-4" value="" style="ellipse;whiteSpace=wrap;html=1;fillColor=#ffe6cc;strokeColor=#d79b00;" vertex="1" parent="1">
          <mxGeometry x="870" y="400" width="180" height="100" as="geometry" />
        </mxCell>
        <mxCell id="M77VAWwHIAC1k1xbrqEO-5" value="&lt;b&gt;&lt;font style=&quot;font-size: 30px;&quot;&gt;DOSSIER&lt;/font&gt;&lt;/b&gt;" style="text;html=1;strokeColor=none;fillColor=none;align=center;verticalAlign=middle;whiteSpace=wrap;rounded=0;" vertex="1" parent="1">
          <mxGeometry x="380" y="270" width="60" height="30" as="geometry" />
        </mxCell>
        <mxCell id="M77VAWwHIAC1k1xbrqEO-8" value="&lt;b&gt;&lt;font style=&quot;font-size: 25px;&quot;&gt;DOCUMENT&lt;/font&gt;&lt;/b&gt;" style="text;html=1;strokeColor=none;fillColor=none;align=center;verticalAlign=middle;whiteSpace=wrap;rounded=0;" vertex="1" parent="1">
          <mxGeometry x="590" y="320" width="60" height="30" as="geometry" />
        </mxCell>
        <mxCell id="M77VAWwHIAC1k1xbrqEO-11" value="&lt;b&gt;&lt;font style=&quot;font-size: 20px;&quot;&gt;CHAPTER&lt;/font&gt;&lt;/b&gt;" style="text;html=1;strokeColor=none;fillColor=none;align=center;verticalAlign=middle;whiteSpace=wrap;rounded=0;" vertex="1" parent="1">
          <mxGeometry x="775" y="390" width="60" height="30" as="geometry" />
        </mxCell>
        <mxCell id="M77VAWwHIAC1k1xbrqEO-12" value="&lt;b&gt;&lt;font style=&quot;font-size: 15px;&quot;&gt;PARAGRAPH&lt;/font&gt;&lt;/b&gt;" style="text;html=1;strokeColor=none;fillColor=none;align=center;verticalAlign=middle;whiteSpace=wrap;rounded=0;" vertex="1" parent="1">
          <mxGeometry x="930" y="435" width="60" height="30" as="geometry" />
        </mxCell>
      </root>
    </mxGraphModel>
  </diagram>
</mxfile>
